<?xml version="1.0" encoding="utf-8"?>
<!-- Generator: Adobe Illustrator 16.0.0, SVG Export Plug-In . SVG Version: 6.00 Build 0)  -->
<!DOCTYPE svg PUBLIC "-//W3C//DTD SVG 1.1//EN" "http://www.w3.org/Graphics/SVG/1.1/DTD/svg11.dtd">
<svg version="1.1" id="Layer_1" xmlns="http://www.w3.org/2000/svg" xmlns:xlink="http://www.w3.org/1999/xlink" x="0px" y="0px"
	 width="1920px" height="1080px" viewBox="0 0 1920 1080" enable-background="new 0 0 1920 1080" xml:space="preserve">
<g id="XMLID_1_">
	<g>
		<path fill="#A3A7AF" d="M1415.99,145.53v788.94c0,80.37-65.16,145.53-145.53,145.53h-231.52l0.67-385.93h133.29
			c11.989,0,22.08-8.971,23.489-20.88l14.75-124.4c1.67-14.07-9.33-26.44-23.489-26.44h-148.71V418.29
			c0-47.2,13.109-79.36,80.779-79.36l62.66-0.03c13.061,0,23.65-10.59,23.65-23.65v-104.9c0-13.07-10.59-23.66-23.66-23.66h-102.11
			c-124.44,0-209.63,75.96-209.63,215.45v120.21H770.54c-13.1,0-23.71,10.64-23.66,23.74l0.49,124.41
			c0.05,13.03,10.62,23.56,23.65,23.56h100.27L870.62,1080H481.53C401.15,1080,336,1014.84,336,934.46V145.53
			C336,65.16,401.16,0,481.53,0h788.93C1350.83,0,1415.99,65.16,1415.99,145.53z"/>
	</g>
	<g>
	</g>
</g>
</svg>
