<?xml version="1.0" encoding="utf-8"?>
<!-- Generator: Adobe Illustrator 16.0.0, SVG Export Plug-In . SVG Version: 6.00 Build 0)  -->
<!DOCTYPE svg PUBLIC "-//W3C//DTD SVG 1.1//EN" "http://www.w3.org/Graphics/SVG/1.1/DTD/svg11.dtd">
<svg version="1.1" id="Layer_1" xmlns="http://www.w3.org/2000/svg" xmlns:xlink="http://www.w3.org/1999/xlink" x="0px" y="0px"
	 width="1920px" height="1080px" viewBox="0 0 1920 1080" enable-background="new 0 0 1920 1080" xml:space="preserve">
<g>
	<g id="XMLID_1_">
		<g>
			<path fill="#A3A7AF" d="M1500,321.74v436.52c0,177.41-144.33,321.74-321.74,321.74H741.74C564.33,1080,420,935.67,420,758.26
				V321.74C420,144.33,564.33,0,741.74,0h436.52C1355.67,0,1500,144.33,1500,321.74z M1391.35,758.26V321.74
				c0-117.69-95.399-213.09-213.09-213.09H741.74c-117.69,0-213.09,95.4-213.09,213.09v436.52c0,117.69,95.4,213.09,213.09,213.09
				h436.52C1295.95,971.35,1391.35,875.95,1391.35,758.26z"/>
			<path fill="#A3A7AF" d="M1239.87,195.84c36.96,0,66.93,29.97,66.93,66.93c0,36.97-29.97,66.93-66.93,66.93
				c-36.97,0-66.93-29.96-66.93-66.93C1172.94,225.81,1202.9,195.84,1239.87,195.84z"/>
			<path fill="#A3A7AF" d="M960,260.67c154.02,0,279.33,125.31,279.33,279.33c0,154.02-125.311,279.32-279.33,279.32
				c-154.02,0-279.33-125.301-279.33-279.32C680.67,385.98,805.98,260.67,960,260.67z M1130.68,540
				c0-94.26-76.42-170.68-170.68-170.68S789.32,445.74,789.32,540S865.74,710.68,960,710.68S1130.68,634.26,1130.68,540z"/>
		</g>
		<g>
		</g>
	</g>
</g>
</svg>
