<?xml version="1.0" encoding="utf-8"?>
<!-- Generator: Adobe Illustrator 16.0.0, SVG Export Plug-In . SVG Version: 6.00 Build 0)  -->
<!DOCTYPE svg PUBLIC "-//W3C//DTD SVG 1.1//EN" "http://www.w3.org/Graphics/SVG/1.1/DTD/svg11.dtd">
<svg version="1.1" id="Layer_1" xmlns="http://www.w3.org/2000/svg" xmlns:xlink="http://www.w3.org/1999/xlink" x="0px" y="0px"
	 width="1920px" height="1080px" viewBox="0 0 1920 1080" enable-background="new 0 0 1920 1080" xml:space="preserve">
<g id="XMLID_1_">
	<g>
		<path fill="#A3A7AF" d="M1500,97.69V982.3c0,53.96-43.74,97.7-97.7,97.7H517.7c-53.96,0-97.7-43.74-97.7-97.7V97.69
			C420,43.74,463.74,0,517.7,0h884.609C1456.26,0,1500,43.74,1500,97.69z M1386.66,934.83V689.3
			c0-106.74,1.189-301.02-206.76-301.02c-93.91,0-138.011,34.38-167.69,78.91v-44.26c0-14.43-11.7-26.14-26.14-26.14h-125.6
			c-14.44,0-26.14,11.71-26.14,26.14v511.9c0,14.439,11.7,26.14,26.14,26.14h125.6c14.439,0,26.14-11.7,26.14-26.14V660.37
			c3.26-36.88,19.49-119.061,99.53-119.061c103.18,0,92.77,120.061,92.77,155.561v237.96c0,14.439,11.7,26.14,26.141,26.14h129.869
			C1374.95,960.97,1386.66,949.27,1386.66,934.83z M754.2,932.54V425.22c0-15.7-12.73-28.43-28.43-28.43H604.75
			c-15.71,0-28.44,12.73-28.44,28.43v507.32c0,15.71,12.73,28.43,28.44,28.43h121.02C741.47,960.97,754.2,948.25,754.2,932.54z
			 M665.26,348.97c63.5,0,114.97-51.48,114.97-114.97c0-63.5-51.48-114.97-114.97-114.97c-63.5,0-114.98,51.47-114.98,114.97
			C550.28,297.49,601.76,348.97,665.26,348.97z"/>
	</g>
	<g>
	</g>
</g>
</svg>
