<?xml version="1.0" encoding="utf-8"?>
<!-- Generator: Adobe Illustrator 16.0.0, SVG Export Plug-In . SVG Version: 6.00 Build 0)  -->
<!DOCTYPE svg PUBLIC "-//W3C//DTD SVG 1.1//EN" "http://www.w3.org/Graphics/SVG/1.1/DTD/svg11.dtd">
<svg version="1.1" id="Layer_1" xmlns="http://www.w3.org/2000/svg" xmlns:xlink="http://www.w3.org/1999/xlink" x="0px" y="0px"
	 width="1920px" height="1080px" viewBox="0 0 1920 1080" enable-background="new 0 0 1920 1080" xml:space="preserve">
<g id="XMLID_1_">
	<g>
		<path fill="#A3A7AF" d="M1500,206.46c0,2.24-0.65,4.56-2.12,6.76c-25.66,38.38-56.81,72.57-92.58,101.61
			c-9.42,7.66-14.83,18.9-14.83,30.84v3.55c0,74.4-14.45,152.33-41.79,225.37c-28.68,76.62-70.04,145.9-122.939,205.91
			c-56.79,64.43-124.351,115.05-200.79,150.46c-83.4,38.63-175.73,58.22-274.43,58.22c-112.76,0-223.79-29.939-321.12-86.59
			c-7.08-4.109-10.92-12.46-8.83-20.38c2.11-8.03,9.13-13.44,17.43-13.44l26.92,0.011c86.38,0,169.38-25.23,240.65-73.07
			c-42.93-6.97-82.34-25.82-114.35-53.34c-32.02-27.521-56.63-63.71-69.98-105.38c-2.57-8.03,3.56-15.9,11.54-15.9
			c0.77,0,1.55,0.07,2.34,0.22c12.99,2.49,26.19,3.74,39.23,3.74c1.66,0,3.32-0.01,4.97-0.05
			c-81.39-37.19-136.01-119.3-136.01-211.9c0-0.96,0.01-1.93,0.02-2.89c0.08-7.02,5.87-12.04,12.19-12.04
			c1.96,0,3.98,0.49,5.89,1.55c16.66,9.25,34.59,16.17,53.11,20.56c-44.05-43.37-69.41-102.85-69.41-165.97
			c0-20.59,2.73-41.01,8.03-60.71c5.3-19.69,13.18-38.66,23.5-56.35c2.32-3.98,6.41-6.04,10.53-6.04c3.48,0,6.97,1.46,9.43,4.48
			c105.33,129.22,254.36,208.83,419.62,224.19c0.28,0.02,0.56,0.04,0.83,0.04c2.43,0,4.77-1.06,6.42-2.92
			c0.94-1.05,2.47-3.3,2.1-6.53c-3.19-28.07-1.33-56.91,5.52-85.73c18.28-76.84,76.53-139.12,152.03-162.53
			c24.37-7.56,49.18-11.39,73.76-11.39c56.811,0,111.521,20.65,154.07,58.14c5.56,4.91,12.64,7.62,19.93,7.62
			c2.4,0,4.79-0.3,7.11-0.89c19.99-5.06,39.569-11.55,58.59-19.4c19.02-7.86,37.479-17.09,55.26-27.63
			c8.45-5.01,18.41,1.48,18.41,10.36c0,1.23-0.19,2.52-0.61,3.82c-11.939,37.36-33.12,70.84-61.279,97.6
			c25.56-6.08,50.47-14.47,74.46-25.11C1491.55,191.45,1500,198.4,1500,206.46z"/>
	</g>
	<g>
	</g>
</g>
</svg>
