<?xml version="1.0" encoding="utf-8"?>
<!-- Generator: Adobe Illustrator 16.0.0, SVG Export Plug-In . SVG Version: 6.00 Build 0)  -->
<!DOCTYPE svg PUBLIC "-//W3C//DTD SVG 1.1//EN" "http://www.w3.org/Graphics/SVG/1.1/DTD/svg11.dtd">
<svg version="1.1" id="bafbdcdd-db4a-4743-9ceb-46364dc67d6e"
	 xmlns="http://www.w3.org/2000/svg" xmlns:xlink="http://www.w3.org/1999/xlink" x="0px" y="0px" width="851px" height="746.055px"
	 viewBox="0 0 851 746.055" enable-background="new 0 0 851 746.055" xml:space="preserve">
<title>ideas</title>
<ellipse fill="#3F3D56" cx="474.5" cy="691.555" rx="308.5" ry="54.5"/>
<g id="XMLID_1_">
	<g>
		<path fill="#14AFB6" d="M292.55,367.768c7.08,25.27-7.67,51.49-32.94,58.569c-25.27,7.08-51.5-7.659-58.58-32.93
			c-44.93,17.65-95.66,12.11-135.72-14.84c-67.32-45.29-85.17-136.57-39.89-203.88c45.29-67.32,136.57-85.18,203.88-39.89
			c67.32,45.29,85.18,136.57,39.89,203.88C280.62,344.787,289.05,355.297,292.55,367.768z"/>
	</g>
	<g>
	</g>
</g>
<rect x="59.781" y="227.304" fill="#FFFFFF" width="174.746" height="13.796"/>
<rect x="59.781" y="250.297" fill="#FFFFFF" width="174.746" height="13.795"/>
<rect x="59.781" y="273.29" fill="#FFFFFF" width="174.746" height="13.796"/>
<g id="XMLID_2_">
	<g>
		<path fill="#14AFB6" d="M825.58,65.407c45.28,67.32,27.43,158.6-39.89,203.89c-40.061,26.94-90.79,32.49-135.721,14.83
			c-7.08,25.28-33.31,40.02-58.58,32.94c-25.27-7.08-40.02-33.3-32.939-58.57c3.5-12.48,11.93-22.98,23.359-29.09
			c-45.29-67.32-27.43-158.6,39.891-203.88C689.01-19.763,780.29-1.903,825.58,65.407z"/>
	</g>
	<g>
	</g>
</g>
<rect x="616.473" y="118.03" fill="#FFFFFF" width="174.746" height="13.796"/>
<rect x="616.473" y="141.023" fill="#FFFFFF" width="174.746" height="13.796"/>
<rect x="616.473" y="164.016" fill="#FFFFFF" width="174.746" height="13.795"/>
<g id="XMLID_3_">
	<g>
		<path fill="#14AFB6" d="M462.81,539.938c25.28,37.58,15.311,88.54-22.27,113.82c-22.36,15.05-50.69,18.14-75.77,8.289
			c-3.96,14.101-18.6,22.341-32.71,18.381c-14.11-3.95-22.34-18.591-18.39-32.7c1.96-6.96,6.66-12.83,13.04-16.24
			c-25.28-37.58-15.31-88.54,22.27-113.82C386.56,492.388,437.52,502.357,462.81,539.938z"/>
	</g>
	<g>
	</g>
</g>
<circle fill="#FFFFFF" cx="362.551" cy="583.84" r="9.491"/>
<circle fill="#FFFFFF" cx="394.932" cy="583.84" r="9.491"/>
<circle fill="#FFFFFF" cx="427.313" cy="583.84" r="9.491"/>
<path fill="#2F2E41" d="M404.437,289.408c0,0,42.346,1.151,49.34,3.696c6.993,2.544,10.121,20.739,10.121,20.739l-32.879,10.335
	l-24.593-1.394l-18.507,1.309l10.334-27.065L404.437,289.408z"/>
<path fill="#9F616A" d="M406.263,275.513c0,0,2.786,10.761-3.397,18.38s26.582,34.77,26.582,34.77l17.285-2.971
	c0,0-3.81-33.064,1.309-41.437C453.158,275.882,406.263,275.513,406.263,275.513z"/>
<path opacity="0.1" enable-background="new    " d="M406.263,275.513c0,0,2.786,10.761-3.397,18.38s26.582,34.77,26.582,34.77
	l17.285-2.971c0,0-3.81-33.064,1.309-41.437C453.158,275.882,406.263,275.513,406.263,275.513z"/>
<polygon fill="#9F616A" points="521.22,590.132 483.081,640.709 509.109,655.905 544.931,597.296 "/>
<path fill="#2F2E41" d="M494.468,641.563c0,0-14.045-16.319-13.419-12.68c0.625,3.639-9.993,34.499-0.114,37.484
	c9.88,2.985,94.601,10.902,95.767,1.336s-25.274-16.262-25.274-16.262s-15.707-15.097-19.19-13.562
	C528.754,639.416,494.468,641.563,494.468,641.563z"/>
<polygon fill="#9F616A" points="512.663,638.435 543.126,690.333 566.125,677.014 535.407,634.525 "/>
<path fill="#2F2E41" d="M560.752,514.963l-9.041,12.794c0,0-43.1,59.859-38.522,64.692s23.64,23.1,33.334,19.56
	c9.694-3.539,44.138-64.721,44.138-64.721l-8.984-35.921L560.752,514.963z"/>
<path fill="#2F2E41" d="M375.09,502.853c0,0,9.652,18.011,34.116,24.108c24.464,6.099,50.022,18.564,50.933,18.408
	c0.909-0.156,3.482-1.535,4.107,2.104c0.626,3.639,7.335,9.979,7.335,9.979s27.023,91.829,37.344,91.928
	c10.319,0.1,31.528-7.292,31.969-10.178s-31.6-96.661-31.913-98.481l-3.752-21.834c0,0,42.374,6.767,46.326,7.96
	c3.951,1.194,39.105,20.441,39.105,20.441s35.836-25.829,2.316-51.913c-33.519-26.084-91.132-45.218-91.132-45.218l-20.669-5.813
	l-18.014-1.075l-2.651-10.171l-42.662,2.461l-44.521,18.893L375.09,502.853z"/>
<circle fill="#9F616A" cx="431.395" cy="263.7" r="33.231"/>
<path fill="#D0CDE1" d="M401.33,290.41l3.997-0.687c0,0,7.219,27.794,29.551,32.386c0,0,11.019-13.2,10.549-15.428
	c-0.471-2.228,8.727-14.111,13.616-7.458c4.891,6.652-1.193,123.84,2.914,125.945c4.108,2.104,12.922,4.335,5.828,12.111
	c-7.093,7.775-35.267,18.237-41.507,14.627s-18.991-34.201-24.507-44.493c-5.516-10.291-14.343-45.303-14.343-45.303
	s-11.272-38.338-4.335-47.023C390.029,306.402,401.33,290.41,401.33,290.41z"/>
<path fill="#2F2E41" d="M433.135,434.681c-0.743,8.163-2.015,16.27-3.807,24.269c-1.63,6.508-3.527,10.437-5.693,10.27
	c-5.525-0.413-8.037,7.691-9.332,17.034c-1.384,9.913-1.384,21.221-2.144,25.217c-1.004,5.28-7.435,9.311-20.283,8.127
	c-7.652-0.87-15.162-2.712-22.348-5.481c-17.347-6.307-16.833-57.455-13.931-95.408c1.775-23.264,4.443-41.582,4.443-41.582
	s-5.269-15.718-6.955-26.489c-0.335-1.966-0.503-3.956-0.502-5.95c0.257-9.41,17.437-34.84,27.818-50.68
	c10.393-15.84,24.57-4.219,24.57-4.219l-4.935,14.891c0,0,7.647,11.799,7.703,23.029c0.056,11.229,18.307,19.334,24.859,24.771
	C436.718,355.894,436.617,401.493,433.135,434.681z"/>
<path fill="#2F2E41" d="M447.564,295.108c0,0,1.197,1.416,6.681,0.725c6.576-0.828,15.618,1.447,17.72,7.726
	c3.852,11.514,14.712,58.353,14.712,58.353s4.521,53.548,6.554,65.374c2.033,11.827,1.023,22.304,3.027,28.516
	c2.005,6.212-19.787-11.585-27.818-9.268c-8.031,2.316-13.191-27.705-12.183-38.182c1.01-10.477,1.862-21.862-0.924-32.623
	s2.153-39.241,1.969-45.766S439.593,306.994,447.564,295.108z"/>
<path fill="#9F616A" d="M471.078,461.533c0,0,35.186,19.196,38.553,46.518c3.367,27.322-47.062-26.454-47.062-26.454
	L471.078,461.533z"/>
<path fill="#9F616A" d="M491.164,442.158c0,0,10.781,54.346,27.576,51.459c16.796-2.887-9.382-54.586-9.382-54.586L491.164,442.158z
	"/>
<path fill="#2F2E41" d="M548.684,679.075c0,0-8.6,9.908-10.732,8.401c-2.132-1.507-7.036,19.005-2.615,22.929
	c4.421,3.923,21.45,10.362,21.635,16.887c0.186,6.525,45.857,5.231,47.492-1.606c1.635-6.837-5.729-22.431-10.902-25.288
	c-5.175-2.857-24.307-29.154-24.307-29.154S554.27,673.432,548.684,679.075z"/>
<path opacity="0.1" enable-background="new    " d="M465.474,494.771c-8.16-5.76-30.943-7.188-51.171-8.518
	c-8.874-0.569-17.258-1.127-23.699-2.031c-6.207-0.859-11.788-6.53-16.744-14.98c-7.513-12.804-13.585-32.005-18.263-50.534
	c1.775-23.264,4.443-41.582,4.443-41.582s-5.269-15.718-6.955-26.49c1.188-1.653,2.719-3.031,4.488-4.04
	c21.455-9.21,41.938,81.422,44.54,95.644c0.044,0.234,0.078,0.457,0.111,0.646c1.262,7.323,14.892,13.586,27.104,16.063
	c7.523,1.529,14.522,1.63,17.749-0.356c8.473-5.202,34.526,15.616,36.503,16.208C485.556,475.402,477.194,503.064,465.474,494.771z"
	/>
<path fill="#2F2E41" d="M357.577,341.016c0,0-15.594,7.363-8.742,41.777c6.852,34.415,20.655,92.924,41.764,95.852
	c21.109,2.929,63.143,2.26,74.87,10.547c11.728,8.288,20.086-19.375,18.109-19.972c-1.976-0.597-28.031-21.407-36.504-16.205
	c-8.472,5.203-42.815-3.881-44.848-15.707C400.193,425.48,379.382,331.647,357.577,341.016z"/>
<path fill="#2F2E41" d="M469.946,324.512l17.138,39.767c0,0,1.726-0.86,3.729,5.352c2.005,6.212,2.942,11.67,6.454,15.75
	c3.511,4.08,19.133,62.275,19.603,65.005c0.469,2.729-21.577,12.139-26.503,4.556C485.44,447.357,469.946,324.512,469.946,324.512z"
	/>
<path fill="#2F2E41" d="M412.488,263.237c1.273-0.34,1.461-2.031,1.503-3.349c0.229-7.055,4.478-14.295,11.231-16.349
	c2.591-0.711,5.305-0.86,7.958-0.438c3.788,0.504,7.446,1.725,10.778,3.596c1.76,0.989,3.484,2.18,5.479,2.482
	c1.318,0.2,7.023,1.858,8.336,2.092c2.884,0.513,5.565,3.094,8.333,2.134c2.648-0.919,3.235-4.348,3.299-7.15
	c0.146-6.384-4.701-15.221-8.97-19.971c-3.239-3.604-8.118-5.268-12.886-6.133c-5.57-0.896-11.216-1.239-16.854-1.025
	c-7.631,0.136-15.474,0.725-22.354,4.027c-6.881,3.302-12.661,9.874-12.991,17.499c-0.068,1.589,0.095,3.184-0.038,4.768
	c-0.326,3.865-2.378,7.355-3.341,11.113c-1.392,5.575-0.36,11.478,2.84,16.25c2.554,3.759,6.567,7.158,6.42,11.699l5.537-5.737
	c1.704-1.301,2.269-3.617,1.353-5.556l-1.96-7.646c-0.504-1.365-0.563-2.854-0.17-4.254
	C408.094,256.097,410.364,263.804,412.488,263.237z"/>
<path fill="#3F3D56" d="M664.146,645.576c-0.229-0.375-5.641-9.41-7.517-28.172c-1.721-17.213-0.614-46.227,14.433-86.699
	c28.506-76.67-6.569-138.533-6.928-139.148l1.73-1.004c0.091,0.156,9.142,15.928,14.488,41.043
	c7.064,33.298,4.492,67.919-7.416,99.807c-28.457,76.54-7.301,112.773-7.084,113.131L664.146,645.576z"/>
<circle fill="#3F3D56" cx="694" cy="422.055" r="13"/>
<g id="XMLID_4_">
	<g>
		<circle fill="#14AFB6" cx="700" cy="481.058" r="13"/>
		<circle fill="#14AFB6" cx="666" cy="454.058" r="13"/>
		<circle fill="#14AFB6" cx="653" cy="374.057" r="13"/>
	</g>
	<g>
	</g>
</g>
<circle fill="#3F3D56" cx="656" cy="523.055" r="13"/>
<path fill="#3F3D56" d="M672,646.055c0,0-13-32,26-56L672,646.055z"/>
<path fill="#3F3D56" d="M656.012,645.474c0,0-5.916-34.029-51.708-33.737L656.012,645.474z"/>
</svg>
