<?xml version="1.0" encoding="utf-8"?>
<!-- Generator: Adobe Illustrator 16.0.0, SVG Export Plug-In . SVG Version: 6.00 Build 0)  -->
<!DOCTYPE svg PUBLIC "-//W3C//DTD SVG 1.1//EN" "http://www.w3.org/Graphics/SVG/1.1/DTD/svg11.dtd">
<svg version="1.1" id="aea587a3-a3e8-4e0f-8220-a5d1e661ad74"
	 xmlns="http://www.w3.org/2000/svg" xmlns:xlink="http://www.w3.org/1999/xlink" x="0px" y="0px" width="959.282px"
	 height="685.955px" viewBox="0 0 959.282 685.955" enable-background="new 0 0 959.282 685.955" xml:space="preserve">
<title>stand_out</title>
<path fill="#D0CDE1" d="M746.704,311.07c-1.793-4.613,0.77-6.919,1.795-11.02c1.023-4.1-2.307-16.913-2.307-16.913
	s-10.764-44.333-14.096-53.045c-1.408-3.687-4.471-6.224-7.533-7.927c-0.209-1.131-0.508-1.86-0.922-2.067
	c-2.969-1.485-10.363-4.71-15.291-5.602c-0.922-1.583-2.014-3.062-3.26-4.406c0.865-1.661,1.268-3.524,1.162-5.394
	c-0.314-4.835-3.977-9.167-3.5-13.989c0.361-3.657,3.035-6.661,4.066-10.187c0.875-3.202,0.381-6.623-1.361-9.447
	c0.758,0.806,1.516,1.613,2.273,2.419c2.121-3.177,1.861-7.376-0.633-10.268c-2.4-2.652-6.414-3.646-8.277-6.7
	c-1.912-3.138-0.887-7.401-2.695-10.6c-4.434-7.836-15.781-2.281-22.578-5.017c-2.793-1.124-4.916-2.361-8.061-2.272
	c-2.672,0.153-5.313,0.646-7.861,1.468c-3.654,1.057-6.834,3.337-9.01,6.458c0.215-0.244,0.451-0.47,0.705-0.673
	c1.646-1.291,4.535-1.183,5.404,0.72c0.209,0.478,0.295,1,0.254,1.52c-0.143,2.294-2.146,4.008-4.139,5.156
	c-1.99,1.148-4.232,2.109-5.531,4.005c-2.146,3.129-0.885,7.329-0.883,11.123c-0.037,4.883-2.283,9.488-6.111,12.521l7.23-2.957
	c-3.451,6.043-5.719,12.69-6.678,19.583l9.777-8.077c-3.621,5.763-5.822,12.304-6.422,19.084l7.848-8.042
	c0.357,0.628,0.537,1.342,0.518,2.064l-0.818,3.156c-0.289,0.627-0.609,1.238-0.959,1.833c-1.264,2.168-2.568,4.837-1.389,7.051
	l0.006-0.003c-1.242,4.183-3.117,8.368-7.291,10.402c4.629,0.484,9.459-1.83,11.549-5.513c0.34,0.663,0.752,1.287,1.227,1.861
	c0.135,0.168,0.268,0.335,0.4,0.502l-1.154,0.769l-3.09,2.06c0,0-20.244,4.1-18.963,11.788c0.053,0.316,0.115,0.694,0.188,1.117
	l-5.826,9.902l-8.455,28.701c0,0-4.357,9.225-3.588,13.069c0.768,3.844,0,5.381,0,12.3c0,6.918-3.332,9.738,0,15.375
	c3.33,5.638,13.324,22.038,13.324,22.038l2.195,1.646c-0.105,0.989-0.068,1.988,0.111,2.967
	c2.051,10.25,21.27,108.397,21.27,108.397s-9.738,77.646,9.994,82.515c2.475,0.611,4.906,1.165,7.266,1.658l2.984,19.611
	l-1.793,24.857c0,0-13.582,30.751,11.275,32.545s13.582-26.65,13.582-26.65c1.313-2.43,1.848-5.201,1.537-7.944
	c-0.254-2.281-2.387-14.152-4.479-25.569c9.432-1.131,7.668-11.143,6.41-15.545c0.545-0.317,0.951-0.825,1.145-1.425
	c0.283-1.022-0.379-5.044-1.578-10.679c-0.977-5.603-2.646-14.671-3.785-20.814l6.131,0.998l25.883-151.705
	c0,0,0.17-2.415,0.092-5.947c3.539-1.83,7.189-3.438,10.928-4.815c8.455-3.332,11.787-15.632,14.605-20.757
	C752.342,317.22,748.499,315.683,746.704,311.07z M654.807,214.479c0.838-0.577,1.82-0.91,2.836-0.961
	c-0.219,1.191-2.27,1.54-3.988,2.164c0.316-0.462,0.705-0.868,1.154-1.203H654.807z M641.893,290.826
	c2.076,3.411-1.682,12.653-5.07,19.989c-1.939-1.673-3.967-1.146-1.592-5.895c1.619-3.01,2.58-6.329,2.818-9.738
	c0-0.586,0.301-4.891,2.826-6.68C641.141,289.307,641.483,290.085,641.893,290.826L641.893,290.826z M634.116,320.265
	c1.176-0.479,2.955-1.213,5.357-2.03c-1.15,1.511-2.465,3.311-3.787,5.276C634.672,322.742,634.09,321.535,634.116,320.265z
	 M717.233,323.627c-1.557-1.655-2.816-3.137-3.852-4.461c1.932,0.509,3.9,1.056,5.902,1.642c0.998,0.149,2.018,0.081,2.986-0.198
	c0.088,1.771,0.09,4.299,0.09,4.299l-2.807,1.943c-0.641-1.165-1.42-2.248-2.318-3.225H717.233z M725.186,314.739
	c-0.029,0.026-0.063,0.056-0.092,0.083c-0.139-1.013-0.367-2.012-0.686-2.983c-1.68-5.297-2.576-14.694-3.055-22.714l4.85,16.307
	C726.204,305.432,726.459,313.633,725.186,314.739L725.186,314.739z"/>
<path fill="#D0CDE1" d="M625.645,247.384c0,0-26.291-45.187-27.113-50.116c-0.822-4.93-13.967-13.967-13.967-13.967
	c-4.49-4.491-11.859-5.912-19.615-5.838c2.92-2.416-7.506-4.04-8.318-5.664c-0.822-1.643-3.285-1.643-6.572-4.108
	c-3.287-2.464-11.488-0.411-11.49-0.411c-1.234-2.595-2.092-5.352-2.549-8.188c3.502-4.143,5.42-9.393,5.412-14.816
	c0-0.059-0.004-0.117-0.004-0.176c0.209,0.326,0.418,0.653,0.627,0.99c1.539-9.219,4.256-16.882-0.922-25.292
	c-3.67-5.96-9.416-10.353-16.131-12.331l-4.932,3.945l1.918-4.602c-1.613-0.246-3.244-0.34-4.875-0.282l-4.438,5.705l1.838-5.509
	c-7.785,0.967-14.811,5.146-19.375,11.524c-5.648,8.143-5.27,19.463,0.285,27.67c0.018-0.058,0.033-0.114,0.051-0.171
	c0.5,7.802,4.926,14.816,11.754,18.622l1.396,11.162l0,0c-1.256,1.166-2.867,1.877-4.574,2.019c-2.465,0-4.93,6.572-4.93,6.572
	s-1.396,0.705-2.902,4.033c-3.879,2.641-15.709,10.935-20.098,16.73c-2.597,1.278-5.387,4.12-4.934,10.458
	c0.821,11.502,0,64.904,0,64.904s-7.395,45.187-4.93,48.473s-0.821,13.967-0.821,13.967l2.465,0.548v2.738
	c0,0-7.413,34.366,4.107,32.863c18.896-2.465,4.93-30.398,4.93-30.398v-3.195l3.287,0.73c0,0,1.643-11.502,4.93-12.323
	c1.143-0.286,2.484-3.356,3.748-7.238c0.738,6.056,1.182,9.703,1.182,9.703l5.141-1.143l1.432,5.25
	c0.354,0.198,0.723,0.365,1.104,0.5l-1.104,6.073c0,0-0.822,6.572,0,10.68c0.414,2.072,15.664,46.354,30.682,89.744l-0.283,10.488
	c0,0-7.395,8.216-5.752,13.967c1.645,5.752-4.107,53.403-4.107,53.403l-4.93,23.825l1.24,0.382l-1.139,4.175
	c-0.98,0.495-1.852,1.181-2.566,2.017c-6.572,7.394-14.787,28.755-14.787,28.755s-14.789,22.183,8.215,21.361
	c23.004-0.822,24.648-9.038,24.648-9.038s3.285-21.36,3.285-22.183c0-0.821-1.643-9.267-1.643-9.267l-0.639-0.704l0.445-10.248
	l4.301,1.322c0,0,4.107-21.36,7.395-23.825c1.148-0.861,4.205-10.457,7.693-22.782c3.566,10.269,7.02,45.772,8.141,48.995
	c-0.398,0.542-0.748,1.118-1.045,1.721c-3.693,7.087-7.809,13.946-12.324,20.539c0,0-26.291,15.61,0,19.718
	c0,0,14.789,0.822,22.182-4.107c7.395-4.93,27.113-12.324,27.113-13.967c0-1.644-4.93-25.798-9.859-23.169l0,0l-3.303-7.595
	l3.303-1.278l-20.801-93.363c0.492-1.99,0.854-4.01,1.082-6.047c0-4.303,10.639-88.077,13.346-109.326
	c11.914,3.375,22.805-21.305,22.805-21.305l2.701-4.862l3.871,2.397c0,0,3.287-8.216,8.217-9.038
	c4.928-0.821,13.967-44.365,13.967-50.116C628.034,254.372,627.194,250.735,625.645,247.384z M587.366,311.753
	c-0.809-1.283-1.748-2.48-2.801-3.572c2.148-5.595,3.799-11.369,4.93-17.253c1.643-9.038-2.465-38.614-2.465-38.614l-0.072-2.009
	c4.033,5.293,9.109,12.351,9.109,14.333c0,1.939,0.914,3.766,2.465,4.93l-4.93,17.253c0,0-3.285,8.216-4.107,12.324
	c-0.492,2.436-0.768,4.91-0.822,7.394l1.166,0.721L587.366,311.753z"/>
<path fill="#D0CDE1" d="M249.522,262.59l4.384-0.986l-18.075-50.938l-39.025-14.377c0,0-0.149,0.166-0.425,0.451
	c-3.329-3.221-4.742-7.896-5.332-11.576c11.777-4.757,17.467-18.16,12.71-29.936c-0.541-1.339-1.207-2.624-1.988-3.838
	c3.216-0.772,4.364-3.689,5.443-7.168c-0.668-0.197-1.35-0.345-2.04-0.444c0.506-1.134,1.011-2.268,1.517-3.402
	c-0.889-0.08-1.777-0.16-2.667-0.24c0.228-1.06,0.455-2.12,0.682-3.18c-1.134,0.783-2.267,1.565-3.4,2.347
	c0.783-2.262,0.345-4.768-1.158-6.631c-1.505-1.819-3.468-3.203-5.687-4.01c-8.846-3.48-18.896-1.724-26.037,4.551l-0.246-0.958
	c-6.936,5.332-11.475,13.197-12.621,21.871c-1.088,8.574,3.031,17.303,8.384,24.088c-0.045-0.296-0.093-0.592-0.143-0.887
	c0.231,0.319,0.471,0.632,0.717,0.938l0.658,25.007l-1.648,1.413c-0.002,0.001-27.653,12.511-28.73,27.452l-0.003,0.011
	c-1.66,7.274-2.481,45.066-2.481,45.066h2.275l-2.275,14.789l-14.789,57.51c0,0-18.896,24.647-2.465,29.577
	c10.211,3.063,13.124-8.784,13.867-18.193c0.592,2.332,2.361,3.909,5.851,4.227c0.275,0.024,0.568,0.045,0.852,0.068
	c-7.77,20.078-2.495,85.375-2.495,85.375c-4.108,8.216,44.365,64.905,44.365,64.905l2.919-1.557l0.631,1.263
	c-1.624,0.156-2.729,0.294-2.729,0.294v25.469c0,0-7.395,25.469,2.465,30.398c2.551,1.275,5.212,0.348,7.755-1.725
	c-0.486,7.86-1.183,19.589-1.183,22.264c0,4.108,10.681,11.502,10.681,11.502s2.465,9.038,22.183,9.038s4.93-23.826,4.93-23.826
	l-10.681-23.826c0,0-0.799,0.392-3.218-1.577l0.866-9.528l4.816,0.426l6.572-96.125c0,0,5.751-85.444,6.573-98.59
	c0.192-4.214,0.093-8.437-0.297-12.638l24.123-49.802L249.522,262.59z M231.724,294.467l-2.465,8.589v-18.996L231.724,294.467z
	 M129.156,355.395c0.02-3.012-0.129-5.061-0.129-5.061l16.062-32.123l-0.452,9.94C144.637,328.151,131.773,344.423,129.156,355.395z
	 M166.819,448.102l15.61-55.045l9.037,66.548l-0.648,24.192c-1.101-2.223-1.984-4.547-2.638-6.939
	C185.715,466.998,166.819,448.102,166.819,448.102z"/>
<path fill="#D0CDE1" d="M389.149,578.861c-7.698-3.17-22.641-9.962-24.452-13.585c-1.811-3.622-10.868-31.696-10.868-31.696
	l-2.332,0.169c-0.301-12.754-1.585-62.183-3.555-68.092c0,0,9.509-78.337-9.509-109.581l-3.427-13.844
	c1.125-5.55,0.98-18.4,0.257-20.57c-0.906-2.717,10.415-11.32,7.245-16.755c-3.169-5.434-11.773-23.999-11.773-23.999
	s0.905-11.773-11.321-22.641c0,0-3.573-20.227-19.672-20.528c-2.177-3.798-5.223-9.838-4.327-12.527
	c0.96-2.879,4.629-11.855,6.702-16.88c1.101-0.497,2.158-1.086,3.161-1.759c12.805-5.737,21.831-19.528,21.831-35.639
	c0-17.246-10.34-31.842-24.589-36.736c2.394-6.311-0.781-13.367-7.091-15.76c-6.31-2.394-13.366,0.781-15.76,7.091
	c-0.52,1.369-0.789,2.82-0.794,4.284c-2.621-6.213,0.291-13.375,6.503-15.996c1.507-0.636,3.126-0.962,4.762-0.96
	c0.793,0.001,1.585,0.079,2.364,0.233c-6.092-2.897-13.38-0.308-16.277,5.785c-2.392,5.029-1.08,11.038,3.19,14.612
	c0.141,0.447,0.308,0.886,0.499,1.314c-13.408,5.411-22.973,19.546-22.973,36.133c0,15.387,8.232,28.659,20.125,34.819
	c-0.063,5.005-1.305,13.443-8.207,18.585c-3.565-1.629-8.514-3.417-11.688-2.606c-1.642-1.28-4.12-1.703-7.491,1.668
	c-6.792,6.792-12.679,24.452-12.679,35.32s1.359,73.809,1.359,73.809s-7.245,2.717-2.264,6.792c1.029,0.857,2.319,1.337,3.658,1.359
	l4.945,36.678c0,0-3.17,35.319,9.056,35.772c0.959,0.053,1.911-0.182,2.737-0.672l-9.076,40.973c0,0-20.83,13.584-37.131,40.301
	c-8.396,13.76-12.583,22.226-14.673,27.209l-2.987-1.852l-10.415,19.924c0,0-23.094,14.037-18.113,24.452s9.509,13.132,9.509,13.132
	l3.17-1.358l5.886,10.867c0,0,15.396,22.188,40.301,10.868c2.4-3.226,2.4-7.643,0-10.868c-4.075-5.887-14.49-18.565-14.49-18.565
	l6.792-34.414l-1.406-0.871l43.065-52.108c0,0,12.679-7.698,17.207-14.49c4.528-6.792,32.603-76.979,32.603-76.979l15.849,73.356
	c0,0-0.906,26.716,3.17,43.923c2.221,9.652,3.67,19.466,4.332,29.349l-1.163,0.085l2.717,20.376c0,0-11.773,28.98-3.623,31.244
	c5.799,1.498,11.702,2.558,17.66,3.17l0.905-3.17c0,0,34.867,19.019,47.546,4.981C394.13,591.993,396.847,582.031,389.149,578.861z
	 M265.077,356.528c1.358,1.358,0.906,7.698,0.906,7.698l-2.717,17.659l-2.713,12.249c-0.375-5.786-1.133-11.542-2.268-17.229
	l-1.254-33.843c0.247,0.155,0.518,0.269,0.801,0.334c0.906,0,0.453-7.697,0.453-7.697s0.528-1.375,1.188-3.545
	c1.76,5.271,3.91,8.709,6.51,9.432l0.453,5.887c0,0-5.887,2.717-0.453,2.717c0.315-0.012,0.628-0.059,0.933-0.139l-0.48,2.402
	C266.436,352.453,263.719,355.17,265.077,356.528z"/>
<ellipse fill="#3F3D56" cx="381.409" cy="593.955" rx="364" ry="6"/>
<ellipse fill="#3F3D56" cx="508.807" cy="609.455" rx="400.396" ry="15.5"/>
<ellipse fill="#3F3D56" cx="434.909" cy="632.455" rx="196.5" ry="15.5"/>
<ellipse fill="#3F3D56" cx="718.909" cy="650.955" rx="87.5" ry="8"/>
<ellipse fill="#3F3D56" cx="598.909" cy="677.955" rx="41.5" ry="8"/>
<ellipse fill="#3F3D56" cx="260.909" cy="643.955" rx="41.5" ry="8"/>
<polygon fill="#FFB8B8" points="465.909,553.455 469.909,581.455 489.909,579.455 487.909,550.455 "/>
<polygon fill="#FFB8B8" points="370.909,553.455 366.909,581.455 346.909,579.455 348.909,550.455 "/>
<path fill="#2F2E41" d="M341.909,263.456c0,0-18,21-14,54c4,33,11,108,11,108l5,133l32-2l5-113l16-91l43,106c0,0,21,99,22,99
	s30-3,30-3l-14-117c0,0-22-170-35-173S341.909,263.456,341.909,263.456z"/>
<path fill="#2F2E41" d="M491.909,575.455c0,0-18-12-25,2s-1,24-1,24s6,4,3,8s-4,30,22,26c26-4,13-31,13-31L491.909,575.455z"/>
<path fill="#2F2E41" d="M344.909,575.455c0,0,18-12,25,2s1,24,1,24s-6,4-3,8s4,30-22,26s-13-31-13-31L344.909,575.455z"/>
<path fill="#FFB8B8" d="M366.409,68.956c0,0,9,25,2,39s11,30,11,30s47-24,41-36s-16-28-14-38L366.409,68.956z"/>
<circle fill="#FFB8B8" cx="383.909" cy="46.456" r="32"/>
<path fill="#D0CDE1" d="M360.909,106.456c0,0,32.108,26.718,56.054-11.141l24.946,14.141l13,152c0,0-73,42-108,6l5-141
	L360.909,106.456z"/>
<polygon fill="#575A89" points="370.992,91.488 325.909,121.455 341.909,195.455 320.909,310.455 354.909,259.455 "/>
<path fill="#575A89" d="M410.836,83.147l11.073,7.309l45,16l-7,124l19,80l-27,14c0,0-5-38-36-57S403.764,88.838,410.836,83.147z"/>
<path fill="#FFB8B8" d="M335.909,277.456l13,9c0,0-16.5,17.5-19.5,14.5c-1.758-1.688-2.674-4.07-2.5-6.5l-3-7L335.909,277.456z"/>
<path fill="#FFB8B8" d="M422.328,275.51l-4.419,6.946c0,0-13,6-10,10s28,13,33,4l5-9L422.328,275.51z"/>
<path fill="#575A89" d="M331.909,120.456l-7,1l-11.5,74.5c0,0-4.5,13.5,0.5,45.5s9.951,52.837,9.951,52.837l22.049-15.837l-10-26
	l13-95L331.909,120.456z"/>
<path fill="#575A89" d="M450.909,104.456l16,2c0,0,18,19,21,39s2,77,2,77l-46,73l-25-18l35-62l-17-74L450.909,104.456z"/>
<path fill="#2F2E41" d="M414.424,17.513c-4.838-7.858-12.413-13.648-21.265-16.257l-6.502,5.201l2.528-6.067
	c-2.125-0.324-4.277-0.448-6.426-0.371l-5.85,7.521l2.421-7.263c-10.262,1.275-19.524,6.784-25.542,15.193
	c-7.445,10.735-8.702,25.665-1.379,36.485c2.01-6.178,4.45-11.974,6.46-18.152c1.58,0.215,3.181,0.223,4.763,0.023l2.446-5.707
	l0.683,5.465c7.581-0.661,18.824-2.11,26.011-3.439l-0.699-4.192l4.181,3.484c2.202-0.507,3.509-0.967,3.401-1.318
	c5.345,8.616,10.641,14.12,15.985,22.736C417.669,38.703,421.251,28.6,414.424,17.513z"/>
<ellipse fill="#FFB8B8" cx="412.652" cy="45.45" rx="2.166" ry="4.333"/>
<g id="XMLID_1_">
	<g>
		<path fill="#14AFB6" d="M758.781,611.037c0.92,31.561-17.52,43.12-40.659,43.801c-0.54,0.01-1.08,0.02-1.61,0.029
			c-1.07,0-2.13-0.01-3.19-0.06c-20.92-0.87-37.489-11.98-38.35-41.32c-0.88-30.38,36.81-69.84,39.64-72.76h0.011
			c0.1-0.11,0.159-0.17,0.159-0.17S757.851,579.478,758.781,611.037z"/>
		<path fill="#14AFB6" d="M623.292,655.527c0.55,18.521-10.28,25.311-23.86,25.71c-0.32,0.01-0.63,0.01-0.94,0.021
			c-0.63,0-1.26-0.011-1.88-0.04c-12.279-0.51-22-7.03-22.51-24.25c-0.52-17.83,21.61-41,23.271-42.71
			c0.069-0.07,0.1-0.101,0.1-0.101S622.751,637.008,623.292,655.527z"/>
		<path fill="#14AFB6" d="M222.781,564.037c0.92,31.561-17.52,43.12-40.66,43.801c-0.54,0.01-1.08,0.02-1.61,0.029
			c-1.07,0-2.13-0.01-3.19-0.06c-20.92-0.87-37.49-11.98-38.35-41.32c-0.89-30.38,36.81-69.84,39.64-72.76h0.01
			c0.1-0.11,0.16-0.17,0.16-0.17S221.851,532.478,222.781,564.037z"/>
	</g>
	<g>
	</g>
</g>
<path fill="#3F3D56" d="M717.814,652.293l14.701-21.86l-14.67,24.212l0.029,2.46c-1.072,0.008-2.135-0.01-3.188-0.054l0.729-31.619
	l-0.02-0.244l0.027-0.047l0.07-2.988l-16.1-23.372l16.08,21.136l0.057,0.632l0.551-23.89l-13.904-24.232l13.943,20.035
	l-0.145-49.493v-0.164l0.004,0.162l0.924,39.007l12.672-15.845l-12.631,19.205l0.277,21.369l11.66-20.855l-11.617,23.997
	l0.154,11.882l16.957-29.051l-16.906,33.196L717.814,652.293z"/>
<path fill="#3F3D56" d="M181.813,604.642l14.7-21.86l-14.67,24.212l0.031,2.46c-1.073,0.008-2.136-0.01-3.188-0.054l0.729-31.619
	l-0.02-0.244l0.027-0.047l0.07-2.988l-16.098-23.372l16.079,21.136l0.057,0.632l0.551-23.89l-13.905-24.232l13.944,20.035
	l-0.146-49.493l0-0.164l0.005,0.162l0.923,39.007l12.672-15.845l-12.631,19.205l0.276,21.369l11.661-20.855l-11.618,23.997
	l0.154,11.882l16.958-29.051l-16.907,33.196L181.813,604.642z"/>
<path fill="#3F3D56" d="M598.452,678.428l8.629-12.831l-8.611,14.212l0.018,1.444c-0.629,0.005-1.254-0.006-1.871-0.032l0.428-18.56
	l-0.012-0.143l0.016-0.028l0.041-1.754l-9.449-13.719l9.438,12.406l0.035,0.371l0.322-14.022l-8.162-14.224l8.186,11.76
	l-0.086-29.051v-0.097l0.004,0.095l0.541,22.896l7.439-9.301l-7.414,11.273l0.162,12.543l6.844-12.242l-6.818,14.086l0.09,6.975
	l9.953-17.053l-9.924,19.485L598.452,678.428z"/>
<path fill="#2F2E41" d="M959.194,51.187c0.029-0.091,0.061-0.184,0.088-0.275c-0.012,0.04-0.027,0.079-0.039,0.119L959.194,51.187z"
	/>
<path fill="#3F3D56" d="M819.452,581.809l74.068-110.146l-73.916,121.996l0.154,12.394c-5.408,0.042-10.762-0.049-16.064-0.27
	l3.674-159.32l-0.102-1.229l0.137-0.237l0.352-15.055l-81.113-117.768l81.018,106.5l0.287,3.182l2.775-120.372l-70.061-122.098
	l70.26,100.952l-0.734-249.38l0.002-0.83l0.023,0.816l4.652,196.545l63.85-79.837l-63.643,96.769l1.395,107.67l58.756-105.082
	L816.682,367.92l0.775,59.87l85.447-146.378l-85.188,167.264L819.452,581.809z"/>
<path fill="#3F3D56" d="M63.155,577.539l50.401-74.952l-50.298,83.015l0.105,8.435c-3.679,0.027-7.323-0.033-10.931-0.185
	l2.5-108.412l-0.068-0.836l0.092-0.162l0.239-10.244L0,394.061l55.13,72.47l0.196,2.165l1.888-81.91L9.54,303.702l47.81,68.695
	L56.851,202.7l0.001-0.565l0.016,0.556l3.165,133.744l43.449-54.327l-43.307,65.849l0.948,73.267l39.982-71.506L61.27,431.994
	l0.528,40.739l58.145-99.605L61.975,486.946L63.155,577.539z"/>
</svg>
